# xmcd
#
# Track frame offsets:
#	150
#	99402
#	140292
#	197312
#	240463
#
# Disc length: 3708 seconds
#
# Revision: 0
# Processed by: cddbd v1.5.2PL0 Copyright (c) Steve Scherf et al.
# Submitted via: audiograbber 1.83.01
#
DISCID=330e7a05
DTITLE=Grateful Dead - 94-04-07 Miami Arena, Miami FL
DYEAR=1900
DGENRE=
TTITLE0=Eyes Of The World
TTITLE1=Playing In The Band
TTITLE2=Terrapin Station
TTITLE3=Jam
TTITLE4=Drums
EXTD=
EXTT0=
EXTT1=
EXTT2=
EXTT3=
EXTT4=
PLAYORDER=
